<mxfile host="app.diagrams.net" agent="Mozilla/5.0 (Windows NT 10.0; Win64; x64; rv:128.0) Gecko/20100101 Firefox/128.0" version="24.7.5" pages="2">
  <diagram name="DFD - общая диаграмма" id="wGE9X4aUuU3Bv_iCvHjZ">
    <mxGraphModel dx="2847" dy="921" grid="1" gridSize="10" guides="1" tooltips="1" connect="1" arrows="1" fold="1" page="1" pageScale="1" pageWidth="1169" pageHeight="827" math="0" shadow="0">
      <root>
        <mxCell id="0" />
        <mxCell id="1" parent="0" />
        <mxCell id="ZIf5hXbie2FMthYEmdHF-6" style="edgeStyle=elbowEdgeStyle;rounded=1;orthogonalLoop=1;jettySize=auto;html=1;exitX=0;exitY=0.5;exitDx=0;exitDy=0;entryX=1;entryY=0.5;entryDx=0;entryDy=0;strokeWidth=2;" parent="1" source="-npdEtdX0yVDCrLZTa7S-1" target="-npdEtdX0yVDCrLZTa7S-8" edge="1">
          <mxGeometry relative="1" as="geometry" />
        </mxCell>
        <mxCell id="ZIf5hXbie2FMthYEmdHF-21" value="Обработанная служебная&lt;br style=&quot;font-size: 12px;&quot;&gt;записка" style="edgeLabel;html=1;align=center;verticalAlign=middle;resizable=0;points=[];fontSize=12;fontFamily=Lucida Console;labelBackgroundColor=none;" parent="ZIf5hXbie2FMthYEmdHF-6" vertex="1" connectable="0">
          <mxGeometry x="-0.1163" y="-2" relative="1" as="geometry">
            <mxPoint x="-8" y="-15" as="offset" />
          </mxGeometry>
        </mxCell>
        <mxCell id="ZIf5hXbie2FMthYEmdHF-17" style="edgeStyle=elbowEdgeStyle;rounded=1;orthogonalLoop=1;jettySize=auto;html=1;exitX=0.75;exitY=1;exitDx=0;exitDy=0;entryX=0.75;entryY=0;entryDx=0;entryDy=0;elbow=vertical;strokeWidth=2;" parent="1" source="-npdEtdX0yVDCrLZTa7S-1" target="ZIf5hXbie2FMthYEmdHF-9" edge="1">
          <mxGeometry relative="1" as="geometry">
            <Array as="points">
              <mxPoint x="830" y="570" />
            </Array>
          </mxGeometry>
        </mxCell>
        <mxCell id="ZIf5hXbie2FMthYEmdHF-18" value="Ведомость выдачи" style="edgeLabel;html=1;align=center;verticalAlign=middle;resizable=0;points=[];fontSize=12;fontFamily=Lucida Console;labelBackgroundColor=none;" parent="ZIf5hXbie2FMthYEmdHF-17" vertex="1" connectable="0">
          <mxGeometry x="0.0353" y="2" relative="1" as="geometry">
            <mxPoint x="-55" y="-18" as="offset" />
          </mxGeometry>
        </mxCell>
        <mxCell id="ZIf5hXbie2FMthYEmdHF-19" style="edgeStyle=elbowEdgeStyle;rounded=1;orthogonalLoop=1;jettySize=auto;html=1;exitX=0.25;exitY=1;exitDx=0;exitDy=0;entryX=0.25;entryY=0;entryDx=0;entryDy=0;strokeWidth=2;elbow=vertical;" parent="1" source="-npdEtdX0yVDCrLZTa7S-1" target="ZIf5hXbie2FMthYEmdHF-8" edge="1">
          <mxGeometry relative="1" as="geometry">
            <Array as="points">
              <mxPoint x="500" y="570" />
            </Array>
          </mxGeometry>
        </mxCell>
        <mxCell id="ZIf5hXbie2FMthYEmdHF-20" value="Ведомость выдачи" style="edgeLabel;html=1;align=center;verticalAlign=middle;resizable=0;points=[];fontSize=12;fontFamily=Lucida Console;labelBackgroundColor=none;" parent="ZIf5hXbie2FMthYEmdHF-19" vertex="1" connectable="0">
          <mxGeometry x="-0.0992" y="1" relative="1" as="geometry">
            <mxPoint x="20" y="-21" as="offset" />
          </mxGeometry>
        </mxCell>
        <mxCell id="ZIf5hXbie2FMthYEmdHF-28" style="edgeStyle=orthogonalEdgeStyle;rounded=1;orthogonalLoop=1;jettySize=auto;html=1;exitX=0.13;exitY=1;exitDx=0;exitDy=0;entryX=1;entryY=0.5;entryDx=0;entryDy=0;strokeWidth=2;exitPerimeter=0;curved=0;" parent="1" source="-npdEtdX0yVDCrLZTa7S-1" target="ZIf5hXbie2FMthYEmdHF-27" edge="1">
          <mxGeometry relative="1" as="geometry" />
        </mxCell>
        <mxCell id="ZIf5hXbie2FMthYEmdHF-29" value="Не согласованное положение&lt;br&gt;об оплате труда" style="edgeLabel;html=1;align=center;verticalAlign=middle;resizable=0;points=[];fontSize=12;fontFamily=Lucida Console;labelBackgroundColor=none;" parent="ZIf5hXbie2FMthYEmdHF-28" vertex="1" connectable="0">
          <mxGeometry x="0.2542" y="-2" relative="1" as="geometry">
            <mxPoint x="7" y="-18" as="offset" />
          </mxGeometry>
        </mxCell>
        <mxCell id="bU_GCNP8-z5AheoSjuVI-59" style="edgeStyle=orthogonalEdgeStyle;rounded=1;orthogonalLoop=1;jettySize=auto;html=1;exitX=0.5;exitY=0;exitDx=0;exitDy=0;entryX=0;entryY=0.5;entryDx=0;entryDy=0;strokeWidth=2;curved=0;" parent="1" source="-npdEtdX0yVDCrLZTa7S-1" target="bU_GCNP8-z5AheoSjuVI-58" edge="1">
          <mxGeometry relative="1" as="geometry" />
        </mxCell>
        <mxCell id="bU_GCNP8-z5AheoSjuVI-60" value="Не согласованная заявка&lt;br&gt;на транспорт" style="edgeLabel;html=1;align=center;verticalAlign=middle;resizable=0;points=[];labelBackgroundColor=none;fontSize=12;fontFamily=Lucida Console;rotation=90;" parent="bU_GCNP8-z5AheoSjuVI-59" vertex="1" connectable="0">
          <mxGeometry x="0.0062" y="-1" relative="1" as="geometry">
            <mxPoint x="24" y="32" as="offset" />
          </mxGeometry>
        </mxCell>
        <mxCell id="-npdEtdX0yVDCrLZTa7S-1" value="&lt;font style=&quot;font-size: 18px;&quot;&gt;&lt;b&gt;Начальник хозяйственного отдела&lt;/b&gt;&lt;/font&gt;" style="rounded=0;whiteSpace=wrap;html=1;strokeWidth=4;fontFamily=Lucida Console;" parent="1" vertex="1">
          <mxGeometry x="522" y="349" width="285" height="131" as="geometry" />
        </mxCell>
        <mxCell id="-npdEtdX0yVDCrLZTa7S-4" style="edgeStyle=elbowEdgeStyle;rounded=1;orthogonalLoop=1;jettySize=auto;html=1;exitX=0;exitY=0.5;exitDx=0;exitDy=0;entryX=1;entryY=0.25;entryDx=0;entryDy=0;strokeWidth=2;curved=0;" parent="1" source="-npdEtdX0yVDCrLZTa7S-2" target="-npdEtdX0yVDCrLZTa7S-1" edge="1">
          <mxGeometry relative="1" as="geometry" />
        </mxCell>
        <mxCell id="-npdEtdX0yVDCrLZTa7S-5" value="&lt;font style=&quot;font-size: 12px;&quot;&gt;Дефектная ведомость&lt;/font&gt;" style="edgeLabel;html=1;align=center;verticalAlign=middle;resizable=0;points=[];labelBackgroundColor=none;fontFamily=Lucida Console;" parent="-npdEtdX0yVDCrLZTa7S-4" vertex="1" connectable="0">
          <mxGeometry x="-0.1086" y="-1" relative="1" as="geometry">
            <mxPoint x="77" y="28" as="offset" />
          </mxGeometry>
        </mxCell>
        <mxCell id="-npdEtdX0yVDCrLZTa7S-2" value="&lt;font face=&quot;Lucida Console&quot; style=&quot;font-size: 14px;&quot;&gt;Специалист 1-ой категории&lt;/font&gt;" style="rounded=0;whiteSpace=wrap;html=1;strokeWidth=2;" parent="1" vertex="1">
          <mxGeometry x="1000" y="280" width="160" height="60" as="geometry" />
        </mxCell>
        <mxCell id="-npdEtdX0yVDCrLZTa7S-6" style="edgeStyle=elbowEdgeStyle;rounded=1;orthogonalLoop=1;jettySize=auto;html=1;exitX=0;exitY=0.5;exitDx=0;exitDy=0;entryX=1;entryY=0.75;entryDx=0;entryDy=0;strokeWidth=2;" parent="1" source="-npdEtdX0yVDCrLZTa7S-3" target="-npdEtdX0yVDCrLZTa7S-1" edge="1">
          <mxGeometry relative="1" as="geometry" />
        </mxCell>
        <mxCell id="-npdEtdX0yVDCrLZTa7S-7" value="&lt;font style=&quot;font-size: 12px;&quot;&gt;Дефектный акт&lt;/font&gt;" style="edgeLabel;html=1;align=center;verticalAlign=middle;resizable=0;points=[];labelBackgroundColor=none;fontFamily=Lucida Console;" parent="-npdEtdX0yVDCrLZTa7S-6" vertex="1" connectable="0">
          <mxGeometry x="0.0879" y="2" relative="1" as="geometry">
            <mxPoint x="58" y="-6" as="offset" />
          </mxGeometry>
        </mxCell>
        <mxCell id="-npdEtdX0yVDCrLZTa7S-3" value="&lt;font face=&quot;Lucida Console&quot; style=&quot;font-size: 14px;&quot;&gt;Специалист 2-ой категории&lt;/font&gt;" style="rounded=0;whiteSpace=wrap;html=1;strokeWidth=2;" parent="1" vertex="1">
          <mxGeometry x="1000" y="500" width="160" height="60" as="geometry" />
        </mxCell>
        <mxCell id="bU_GCNP8-z5AheoSjuVI-20" style="edgeStyle=orthogonalEdgeStyle;rounded=1;orthogonalLoop=1;jettySize=auto;html=1;entryX=0.25;entryY=0;entryDx=0;entryDy=0;curved=0;strokeWidth=2;exitX=0.895;exitY=0.001;exitDx=0;exitDy=0;exitPerimeter=0;" parent="1" source="-npdEtdX0yVDCrLZTa7S-8" target="-npdEtdX0yVDCrLZTa7S-1" edge="1">
          <mxGeometry relative="1" as="geometry">
            <mxPoint x="350" y="360" as="sourcePoint" />
            <Array as="points">
              <mxPoint x="330" y="320" />
              <mxPoint x="593" y="320" />
            </Array>
          </mxGeometry>
        </mxCell>
        <mxCell id="bU_GCNP8-z5AheoSjuVI-21" value="Накладная" style="edgeLabel;html=1;align=center;verticalAlign=middle;resizable=0;points=[];fontSize=12;fontFamily=Lucida Console;labelBackgroundColor=none;" parent="bU_GCNP8-z5AheoSjuVI-20" vertex="1" connectable="0">
          <mxGeometry x="-0.0225" y="1" relative="1" as="geometry">
            <mxPoint x="20" y="-9" as="offset" />
          </mxGeometry>
        </mxCell>
        <mxCell id="bU_GCNP8-z5AheoSjuVI-29" style="edgeStyle=orthogonalEdgeStyle;rounded=1;orthogonalLoop=1;jettySize=auto;html=1;exitX=0.737;exitY=-0.003;exitDx=0;exitDy=0;exitPerimeter=0;curved=0;strokeWidth=2;entryX=0.054;entryY=1.004;entryDx=0;entryDy=0;entryPerimeter=0;" parent="1" source="-npdEtdX0yVDCrLZTa7S-8" target="bU_GCNP8-z5AheoSjuVI-28" edge="1">
          <mxGeometry relative="1" as="geometry">
            <mxPoint x="520" y="180" as="targetPoint" />
            <Array as="points">
              <mxPoint x="300" y="270" />
              <mxPoint x="470" y="270" />
              <mxPoint x="470" y="140" />
              <mxPoint x="469" y="140" />
            </Array>
          </mxGeometry>
        </mxCell>
        <mxCell id="bU_GCNP8-z5AheoSjuVI-35" value="Служебная записка" style="edgeLabel;html=1;align=center;verticalAlign=middle;resizable=0;points=[];labelBackgroundColor=none;fontSize=12;fontFamily=Lucida Console;rotation=90;" parent="bU_GCNP8-z5AheoSjuVI-29" vertex="1" connectable="0">
          <mxGeometry x="0.771" y="1" relative="1" as="geometry">
            <mxPoint x="16" y="24" as="offset" />
          </mxGeometry>
        </mxCell>
        <mxCell id="-npdEtdX0yVDCrLZTa7S-8" value="&lt;font style=&quot;font-size: 14px;&quot;&gt;Главный бухгалтер&lt;/font&gt;" style="rounded=0;whiteSpace=wrap;html=1;strokeWidth=2;fontFamily=Lucida Console;" parent="1" vertex="1">
          <mxGeometry x="160" y="374.25" width="190" height="80.5" as="geometry" />
        </mxCell>
        <mxCell id="-npdEtdX0yVDCrLZTa7S-11" style="edgeStyle=elbowEdgeStyle;rounded=1;orthogonalLoop=1;jettySize=auto;html=1;curved=0;strokeWidth=2;shadow=0;entryX=1.005;entryY=0.084;entryDx=0;entryDy=0;entryPerimeter=0;" parent="1" target="-npdEtdX0yVDCrLZTa7S-8" edge="1">
          <mxGeometry relative="1" as="geometry">
            <mxPoint x="521" y="381" as="sourcePoint" />
            <mxPoint x="348" y="374" as="targetPoint" />
          </mxGeometry>
        </mxCell>
        <mxCell id="ZIf5hXbie2FMthYEmdHF-1" value="Не согласованная&lt;br style=&quot;font-size: 12px;&quot;&gt;дефектная ведомость" style="edgeLabel;html=1;align=center;verticalAlign=middle;resizable=0;points=[];labelBackgroundColor=none;fontSize=12;fontFamily=Lucida Console;" parent="-npdEtdX0yVDCrLZTa7S-11" vertex="1" connectable="0">
          <mxGeometry x="-0.2793" y="-3" relative="1" as="geometry">
            <mxPoint x="-19" y="-19" as="offset" />
          </mxGeometry>
        </mxCell>
        <mxCell id="ZIf5hXbie2FMthYEmdHF-4" style="edgeStyle=elbowEdgeStyle;rounded=1;orthogonalLoop=1;jettySize=auto;html=1;strokeWidth=2;" parent="1" edge="1">
          <mxGeometry relative="1" as="geometry">
            <mxPoint x="522" y="450" as="sourcePoint" />
            <mxPoint x="350" y="450" as="targetPoint" />
          </mxGeometry>
        </mxCell>
        <mxCell id="ZIf5hXbie2FMthYEmdHF-5" value="Не согласованный&lt;br style=&quot;font-size: 12px;&quot;&gt;дефектный акт" style="edgeLabel;html=1;align=center;verticalAlign=middle;resizable=0;points=[];fontSize=12;fontFamily=Lucida Console;labelBackgroundColor=none;" parent="ZIf5hXbie2FMthYEmdHF-4" vertex="1" connectable="0">
          <mxGeometry x="-0.3961" y="3" relative="1" as="geometry">
            <mxPoint x="-30" y="-20" as="offset" />
          </mxGeometry>
        </mxCell>
        <mxCell id="ZIf5hXbie2FMthYEmdHF-8" value="&lt;font style=&quot;font-size: 14px;&quot;&gt;Уборщик служебных помещений&lt;/font&gt;" style="rounded=0;whiteSpace=wrap;html=1;strokeWidth=2;fontFamily=Lucida Console;" parent="1" vertex="1">
          <mxGeometry x="362" y="740" width="160" height="60" as="geometry" />
        </mxCell>
        <mxCell id="ZIf5hXbie2FMthYEmdHF-9" value="&lt;font style=&quot;font-size: 14px;&quot;&gt;Уборщик территорий&lt;/font&gt;" style="rounded=0;whiteSpace=wrap;html=1;strokeWidth=2;fontFamily=Lucida Console;" parent="1" vertex="1">
          <mxGeometry x="800" y="740" width="160" height="60" as="geometry" />
        </mxCell>
        <mxCell id="ZIf5hXbie2FMthYEmdHF-10" style="edgeStyle=elbowEdgeStyle;rounded=1;orthogonalLoop=1;jettySize=auto;html=1;entryX=0.411;entryY=1;entryDx=0;entryDy=0;strokeWidth=2;exitX=0.75;exitY=0;exitDx=0;exitDy=0;entryPerimeter=0;" parent="1" source="ZIf5hXbie2FMthYEmdHF-8" target="-npdEtdX0yVDCrLZTa7S-1" edge="1">
          <mxGeometry relative="1" as="geometry">
            <mxPoint x="536" y="680" as="sourcePoint" />
            <mxPoint x="440" y="540" as="targetPoint" />
          </mxGeometry>
        </mxCell>
        <mxCell id="ZIf5hXbie2FMthYEmdHF-11" value="&lt;font style=&quot;font-size: 12px;&quot;&gt;Служебная записка&lt;/font&gt;" style="edgeLabel;html=1;align=center;verticalAlign=middle;resizable=0;points=[];labelBackgroundColor=none;fontFamily=Lucida Console;" parent="ZIf5hXbie2FMthYEmdHF-10" vertex="1" connectable="0">
          <mxGeometry x="0.0999" relative="1" as="geometry">
            <mxPoint x="-19" y="-20" as="offset" />
          </mxGeometry>
        </mxCell>
        <mxCell id="ZIf5hXbie2FMthYEmdHF-15" style="edgeStyle=elbowEdgeStyle;rounded=1;orthogonalLoop=1;jettySize=auto;html=1;exitX=0.25;exitY=0;exitDx=0;exitDy=0;entryX=0.587;entryY=0.997;entryDx=0;entryDy=0;entryPerimeter=0;strokeWidth=2;elbow=vertical;" parent="1" source="ZIf5hXbie2FMthYEmdHF-9" target="-npdEtdX0yVDCrLZTa7S-1" edge="1">
          <mxGeometry relative="1" as="geometry" />
        </mxCell>
        <mxCell id="ZIf5hXbie2FMthYEmdHF-16" value="&lt;font style=&quot;font-size: 12px;&quot;&gt;Служебная записка&lt;/font&gt;" style="edgeLabel;html=1;align=center;verticalAlign=middle;resizable=0;points=[];labelBackgroundColor=none;fontFamily=Lucida Console;" parent="ZIf5hXbie2FMthYEmdHF-15" vertex="1" connectable="0">
          <mxGeometry x="-0.1215" y="1" relative="1" as="geometry">
            <mxPoint x="-27" y="-21" as="offset" />
          </mxGeometry>
        </mxCell>
        <mxCell id="bU_GCNP8-z5AheoSjuVI-17" style="edgeStyle=orthogonalEdgeStyle;rounded=1;orthogonalLoop=1;jettySize=auto;html=1;exitX=1;exitY=0.25;exitDx=0;exitDy=0;entryX=0.526;entryY=0.001;entryDx=0;entryDy=0;entryPerimeter=0;curved=0;strokeWidth=2;" parent="1" source="ZIf5hXbie2FMthYEmdHF-22" target="-npdEtdX0yVDCrLZTa7S-8" edge="1">
          <mxGeometry relative="1" as="geometry">
            <mxPoint x="330" y="250" as="targetPoint" />
          </mxGeometry>
        </mxCell>
        <mxCell id="bU_GCNP8-z5AheoSjuVI-19" value="Подписанный дефектный акт" style="edgeLabel;html=1;align=center;verticalAlign=middle;resizable=0;points=[];labelBackgroundColor=none;fontSize=12;fontFamily=Lucida Console;rotation=90;" parent="bU_GCNP8-z5AheoSjuVI-17" vertex="1" connectable="0">
          <mxGeometry x="-0.1504" y="1" relative="1" as="geometry">
            <mxPoint x="19" y="58" as="offset" />
          </mxGeometry>
        </mxCell>
        <mxCell id="ZIf5hXbie2FMthYEmdHF-22" value="&lt;font face=&quot;Lucida Console&quot; style=&quot;font-size: 14px;&quot;&gt;Директор&lt;/font&gt;" style="rounded=0;whiteSpace=wrap;html=1;strokeWidth=2;" parent="1" vertex="1">
          <mxGeometry x="-20" y="120" width="190" height="80.5" as="geometry" />
        </mxCell>
        <mxCell id="ZIf5hXbie2FMthYEmdHF-27" value="&lt;font style=&quot;font-size: 14px;&quot;&gt;Заместитель директора по общим вопросам&lt;/font&gt;" style="rounded=0;whiteSpace=wrap;html=1;strokeWidth=2;fontFamily=Lucida Console;" parent="1" vertex="1">
          <mxGeometry x="160" y="480" width="190" height="80.5" as="geometry" />
        </mxCell>
        <mxCell id="bU_GCNP8-z5AheoSjuVI-6" style="edgeStyle=orthogonalEdgeStyle;rounded=1;orthogonalLoop=1;jettySize=auto;html=1;exitX=0;exitY=0.5;exitDx=0;exitDy=0;strokeWidth=2;curved=0;entryX=0.155;entryY=1.004;entryDx=0;entryDy=0;entryPerimeter=0;" parent="1" source="ZIf5hXbie2FMthYEmdHF-27" target="ZIf5hXbie2FMthYEmdHF-22" edge="1">
          <mxGeometry relative="1" as="geometry">
            <mxPoint x="50" y="220" as="targetPoint" />
          </mxGeometry>
        </mxCell>
        <mxCell id="bU_GCNP8-z5AheoSjuVI-7" value="Согласованное положение&lt;br style=&quot;font-size: 12px;&quot;&gt;об оплате труда" style="edgeLabel;html=1;align=center;verticalAlign=middle;resizable=0;points=[];fontSize=12;fontFamily=Lucida Console;labelBackgroundColor=none;rotation=-90;" parent="bU_GCNP8-z5AheoSjuVI-6" vertex="1" connectable="0">
          <mxGeometry x="0.4413" y="1" relative="1" as="geometry">
            <mxPoint x="-18" y="31" as="offset" />
          </mxGeometry>
        </mxCell>
        <mxCell id="bU_GCNP8-z5AheoSjuVI-8" style="edgeStyle=orthogonalEdgeStyle;rounded=1;orthogonalLoop=1;jettySize=auto;html=1;exitX=0;exitY=0.75;exitDx=0;exitDy=0;strokeWidth=2;curved=0;entryX=0.373;entryY=1.002;entryDx=0;entryDy=0;entryPerimeter=0;" parent="1" source="-npdEtdX0yVDCrLZTa7S-8" target="ZIf5hXbie2FMthYEmdHF-22" edge="1">
          <mxGeometry relative="1" as="geometry">
            <mxPoint x="80" y="210" as="targetPoint" />
          </mxGeometry>
        </mxCell>
        <mxCell id="bU_GCNP8-z5AheoSjuVI-9" value="Согласованный дефектный&lt;br&gt;акт" style="edgeLabel;html=1;align=center;verticalAlign=middle;resizable=0;points=[];fontFamily=Lucida Console;fontSize=12;labelBackgroundColor=none;rotation=-90;" parent="bU_GCNP8-z5AheoSjuVI-8" vertex="1" connectable="0">
          <mxGeometry x="0.3589" y="2" relative="1" as="geometry">
            <mxPoint x="-19" y="33" as="offset" />
          </mxGeometry>
        </mxCell>
        <mxCell id="bU_GCNP8-z5AheoSjuVI-10" style="edgeStyle=orthogonalEdgeStyle;rounded=1;orthogonalLoop=1;jettySize=auto;html=1;exitX=0;exitY=0.5;exitDx=0;exitDy=0;entryX=0.579;entryY=0.998;entryDx=0;entryDy=0;entryPerimeter=0;strokeWidth=2;curved=0;" parent="1" source="-npdEtdX0yVDCrLZTa7S-8" target="ZIf5hXbie2FMthYEmdHF-22" edge="1">
          <mxGeometry relative="1" as="geometry">
            <mxPoint x="110" y="210" as="targetPoint" />
          </mxGeometry>
        </mxCell>
        <mxCell id="bU_GCNP8-z5AheoSjuVI-12" value="Утверждение служебной&lt;br style=&quot;font-size: 12px;&quot;&gt;записки" style="edgeLabel;html=1;align=center;verticalAlign=middle;resizable=0;points=[];fontSize=12;fontFamily=Lucida Console;labelBackgroundColor=none;rotation=-90;" parent="bU_GCNP8-z5AheoSjuVI-10" vertex="1" connectable="0">
          <mxGeometry x="0.4213" y="1" relative="1" as="geometry">
            <mxPoint x="-19" y="41" as="offset" />
          </mxGeometry>
        </mxCell>
        <mxCell id="bU_GCNP8-z5AheoSjuVI-11" style="edgeStyle=orthogonalEdgeStyle;rounded=1;orthogonalLoop=1;jettySize=auto;html=1;exitX=0;exitY=0.25;exitDx=0;exitDy=0;entryX=0.79;entryY=1.004;entryDx=0;entryDy=0;entryPerimeter=0;strokeWidth=2;curved=0;" parent="1" source="-npdEtdX0yVDCrLZTa7S-8" target="ZIf5hXbie2FMthYEmdHF-22" edge="1">
          <mxGeometry relative="1" as="geometry">
            <mxPoint x="210" y="230" as="targetPoint" />
          </mxGeometry>
        </mxCell>
        <mxCell id="bU_GCNP8-z5AheoSjuVI-13" value="Согласованная дефектная&lt;br style=&quot;font-size: 12px;&quot;&gt;ведомость" style="edgeLabel;html=1;align=center;verticalAlign=middle;resizable=0;points=[];fontSize=12;fontFamily=Lucida Console;labelBackgroundColor=none;rotation=-90;" parent="bU_GCNP8-z5AheoSjuVI-11" vertex="1" connectable="0">
          <mxGeometry x="0.315" relative="1" as="geometry">
            <mxPoint x="-20" y="26" as="offset" />
          </mxGeometry>
        </mxCell>
        <mxCell id="bU_GCNP8-z5AheoSjuVI-14" style="edgeStyle=orthogonalEdgeStyle;rounded=1;orthogonalLoop=1;jettySize=auto;html=1;exitX=1;exitY=0.75;exitDx=0;exitDy=0;entryX=0.106;entryY=0.004;entryDx=0;entryDy=0;entryPerimeter=0;curved=0;strokeWidth=2;" parent="1" source="ZIf5hXbie2FMthYEmdHF-22" target="-npdEtdX0yVDCrLZTa7S-8" edge="1">
          <mxGeometry relative="1" as="geometry">
            <mxPoint x="210" y="350" as="targetPoint" />
            <Array as="points">
              <mxPoint x="180" y="180" />
            </Array>
          </mxGeometry>
        </mxCell>
        <mxCell id="bU_GCNP8-z5AheoSjuVI-15" value="Подписанная дефектная&lt;br style=&quot;font-size: 12px;&quot;&gt;ведомость" style="edgeLabel;html=1;align=center;verticalAlign=middle;resizable=0;points=[];fontSize=12;fontFamily=Lucida Console;labelBackgroundColor=none;rotation=90;" parent="bU_GCNP8-z5AheoSjuVI-14" vertex="1" connectable="0">
          <mxGeometry x="-0.1494" y="2" relative="1" as="geometry">
            <mxPoint x="18" y="23" as="offset" />
          </mxGeometry>
        </mxCell>
        <mxCell id="bU_GCNP8-z5AheoSjuVI-16" style="edgeStyle=orthogonalEdgeStyle;rounded=1;orthogonalLoop=1;jettySize=auto;html=1;exitX=1;exitY=0.5;exitDx=0;exitDy=0;entryX=0.317;entryY=-0.001;entryDx=0;entryDy=0;curved=0;strokeWidth=2;entryPerimeter=0;" parent="1" source="ZIf5hXbie2FMthYEmdHF-22" target="-npdEtdX0yVDCrLZTa7S-8" edge="1">
          <mxGeometry relative="1" as="geometry">
            <mxPoint x="250" y="350" as="targetPoint" />
          </mxGeometry>
        </mxCell>
        <mxCell id="bU_GCNP8-z5AheoSjuVI-18" value="Утвержденная служебная&lt;br style=&quot;font-size: 12px;&quot;&gt;записка" style="edgeLabel;html=1;align=center;verticalAlign=middle;resizable=0;points=[];labelBackgroundColor=none;fontSize=12;fontFamily=Lucida Console;rotation=90;" parent="bU_GCNP8-z5AheoSjuVI-16" vertex="1" connectable="0">
          <mxGeometry x="0.1132" y="-1" relative="1" as="geometry">
            <mxPoint x="21" y="7" as="offset" />
          </mxGeometry>
        </mxCell>
        <mxCell id="bU_GCNP8-z5AheoSjuVI-27" value="&lt;font style=&quot;font-size: 14px;&quot;&gt;База данных 1C&lt;/font&gt;" style="html=1;rounded=0;shadow=0;comic=0;labelBackgroundColor=none;strokeWidth=2;fontFamily=Lucida Console;fontSize=12;align=center;shape=mxgraph.ios7ui.horLines;fillColor=default;" parent="1" vertex="1">
          <mxGeometry x="300" y="80" width="120" height="50" as="geometry" />
        </mxCell>
        <mxCell id="bU_GCNP8-z5AheoSjuVI-28" value="&lt;font style=&quot;font-size: 14px;&quot;&gt;Хранилище данных&lt;/font&gt;" style="html=1;rounded=0;shadow=0;comic=0;labelBackgroundColor=none;strokeWidth=2;fontFamily=Lucida Console;fontSize=12;align=center;shape=mxgraph.ios7ui.horLines;fillColor=default;" parent="1" vertex="1">
          <mxGeometry x="460" y="80" width="170" height="50" as="geometry" />
        </mxCell>
        <mxCell id="bU_GCNP8-z5AheoSjuVI-43" value="" style="endArrow=classic;html=1;rounded=1;edgeStyle=orthogonalEdgeStyle;curved=0;strokeWidth=2;entryX=0.232;entryY=1.004;entryDx=0;entryDy=0;entryPerimeter=0;" parent="1" target="bU_GCNP8-z5AheoSjuVI-28" edge="1">
          <mxGeometry width="50" height="50" relative="1" as="geometry">
            <mxPoint x="460" y="270" as="sourcePoint" />
            <mxPoint x="510" y="210" as="targetPoint" />
            <Array as="points">
              <mxPoint x="460" y="270" />
              <mxPoint x="500" y="270" />
              <mxPoint x="500" y="195" />
              <mxPoint x="499" y="195" />
            </Array>
          </mxGeometry>
        </mxCell>
        <mxCell id="bU_GCNP8-z5AheoSjuVI-44" value="Ведомость выдачи" style="edgeLabel;html=1;align=center;verticalAlign=middle;resizable=0;points=[];fontSize=12;fontFamily=Lucida Console;labelBackgroundColor=none;rotation=90;" parent="bU_GCNP8-z5AheoSjuVI-43" vertex="1" connectable="0">
          <mxGeometry x="0.4883" y="-1" relative="1" as="geometry">
            <mxPoint x="15" y="24" as="offset" />
          </mxGeometry>
        </mxCell>
        <mxCell id="bU_GCNP8-z5AheoSjuVI-45" value="" style="endArrow=classic;html=1;rounded=1;edgeStyle=orthogonalEdgeStyle;curved=0;entryX=0.411;entryY=1.004;entryDx=0;entryDy=0;entryPerimeter=0;strokeWidth=2;" parent="1" target="bU_GCNP8-z5AheoSjuVI-28" edge="1">
          <mxGeometry width="50" height="50" relative="1" as="geometry">
            <mxPoint x="490" y="270" as="sourcePoint" />
            <mxPoint x="670" y="210" as="targetPoint" />
            <Array as="points">
              <mxPoint x="490" y="270" />
              <mxPoint x="530" y="270" />
            </Array>
          </mxGeometry>
        </mxCell>
        <mxCell id="bU_GCNP8-z5AheoSjuVI-46" value="Дефектный акт" style="edgeLabel;html=1;align=center;verticalAlign=middle;resizable=0;points=[];fontSize=12;labelBackgroundColor=none;fontFamily=Lucida Console;rotation=90;" parent="bU_GCNP8-z5AheoSjuVI-45" vertex="1" connectable="0">
          <mxGeometry x="0.4815" y="-2" relative="1" as="geometry">
            <mxPoint x="13" y="24" as="offset" />
          </mxGeometry>
        </mxCell>
        <mxCell id="bU_GCNP8-z5AheoSjuVI-47" value="" style="endArrow=classic;html=1;rounded=1;edgeStyle=orthogonalEdgeStyle;curved=0;entryX=0.589;entryY=1.004;entryDx=0;entryDy=0;entryPerimeter=0;strokeWidth=2;" parent="1" target="bU_GCNP8-z5AheoSjuVI-28" edge="1">
          <mxGeometry width="50" height="50" relative="1" as="geometry">
            <mxPoint x="510" y="270" as="sourcePoint" />
            <mxPoint x="559.79" y="140" as="targetPoint" />
            <Array as="points">
              <mxPoint x="560" y="270" />
            </Array>
          </mxGeometry>
        </mxCell>
        <mxCell id="bU_GCNP8-z5AheoSjuVI-48" value="Дефектная ведомость" style="edgeLabel;html=1;align=center;verticalAlign=middle;resizable=0;points=[];fontSize=12;fontFamily=Lucida Console;labelBackgroundColor=none;rotation=90;" parent="bU_GCNP8-z5AheoSjuVI-47" vertex="1" connectable="0">
          <mxGeometry x="0.6855" relative="1" as="geometry">
            <mxPoint x="14" y="41" as="offset" />
          </mxGeometry>
        </mxCell>
        <mxCell id="bU_GCNP8-z5AheoSjuVI-49" value="" style="endArrow=classic;html=1;rounded=1;edgeStyle=orthogonalEdgeStyle;curved=0;entryX=0.761;entryY=1.004;entryDx=0;entryDy=0;entryPerimeter=0;strokeWidth=2;" parent="1" target="bU_GCNP8-z5AheoSjuVI-28" edge="1">
          <mxGeometry width="50" height="50" relative="1" as="geometry">
            <mxPoint x="540" y="270" as="sourcePoint" />
            <mxPoint x="600" y="220" as="targetPoint" />
            <Array as="points">
              <mxPoint x="590" y="270" />
              <mxPoint x="590" y="200" />
              <mxPoint x="589" y="200" />
            </Array>
          </mxGeometry>
        </mxCell>
        <mxCell id="bU_GCNP8-z5AheoSjuVI-54" value="Положение об&lt;br style=&quot;font-size: 12px;&quot;&gt;оплате труда" style="edgeLabel;html=1;align=center;verticalAlign=middle;resizable=0;points=[];fontSize=12;fontFamily=Lucida Console;labelBackgroundColor=none;rotation=90;" parent="bU_GCNP8-z5AheoSjuVI-49" vertex="1" connectable="0">
          <mxGeometry x="0.458" y="1" relative="1" as="geometry">
            <mxPoint x="17" y="19" as="offset" />
          </mxGeometry>
        </mxCell>
        <mxCell id="bU_GCNP8-z5AheoSjuVI-51" value="" style="endArrow=classic;html=1;rounded=1;edgeStyle=orthogonalEdgeStyle;curved=0;entryX=0.941;entryY=1.001;entryDx=0;entryDy=0;entryPerimeter=0;strokeWidth=2;" parent="1" target="bU_GCNP8-z5AheoSjuVI-28" edge="1">
          <mxGeometry width="50" height="50" relative="1" as="geometry">
            <mxPoint x="579.5" y="270" as="sourcePoint" />
            <mxPoint x="629.5" y="220" as="targetPoint" />
            <Array as="points">
              <mxPoint x="620" y="270" />
            </Array>
          </mxGeometry>
        </mxCell>
        <mxCell id="bU_GCNP8-z5AheoSjuVI-53" value="Накладная" style="edgeLabel;html=1;align=center;verticalAlign=middle;resizable=0;points=[];labelBackgroundColor=none;fontSize=12;rotation=90;horizontal=1;fontFamily=Lucida Console;" parent="bU_GCNP8-z5AheoSjuVI-51" vertex="1" connectable="0">
          <mxGeometry x="0.3998" relative="1" as="geometry">
            <mxPoint x="10" y="16" as="offset" />
          </mxGeometry>
        </mxCell>
        <mxCell id="bU_GCNP8-z5AheoSjuVI-55" value="" style="endArrow=classic;html=1;rounded=1;entryX=0.5;entryY=1;entryDx=0;entryDy=0;entryPerimeter=0;strokeWidth=2;curved=0;" parent="1" target="bU_GCNP8-z5AheoSjuVI-27" edge="1">
          <mxGeometry width="50" height="50" relative="1" as="geometry">
            <mxPoint x="360" y="270" as="sourcePoint" />
            <mxPoint x="400" y="200" as="targetPoint" />
          </mxGeometry>
        </mxCell>
        <mxCell id="bU_GCNP8-z5AheoSjuVI-56" value="Накладная" style="edgeLabel;html=1;align=center;verticalAlign=middle;resizable=0;points=[];fontSize=12;fontFamily=Lucida Console;labelBackgroundColor=none;rotation=90;" parent="bU_GCNP8-z5AheoSjuVI-55" vertex="1" connectable="0">
          <mxGeometry x="0.3276" y="-1" relative="1" as="geometry">
            <mxPoint x="13" y="24" as="offset" />
          </mxGeometry>
        </mxCell>
        <mxCell id="bU_GCNP8-z5AheoSjuVI-63" style="edgeStyle=orthogonalEdgeStyle;rounded=1;orthogonalLoop=1;jettySize=auto;html=1;exitX=1;exitY=0.5;exitDx=0;exitDy=0;entryX=0;entryY=0.5;entryDx=0;entryDy=0;curved=0;strokeWidth=2;" parent="1" source="bU_GCNP8-z5AheoSjuVI-58" target="bU_GCNP8-z5AheoSjuVI-62" edge="1">
          <mxGeometry relative="1" as="geometry" />
        </mxCell>
        <mxCell id="bU_GCNP8-z5AheoSjuVI-64" value="Согласованная заявка&lt;br style=&quot;font-size: 12px;&quot;&gt;на транспорт" style="edgeLabel;html=1;align=center;verticalAlign=middle;resizable=0;points=[];labelBackgroundColor=none;fontSize=12;fontFamily=Lucida Console;" parent="bU_GCNP8-z5AheoSjuVI-63" vertex="1" connectable="0">
          <mxGeometry x="-0.2971" y="-2" relative="1" as="geometry">
            <mxPoint x="30" y="-27" as="offset" />
          </mxGeometry>
        </mxCell>
        <mxCell id="bU_GCNP8-z5AheoSjuVI-58" value="&lt;font style=&quot;font-size: 14px;&quot;&gt;Управление культуры г.Сочи&lt;/font&gt;" style="rounded=0;whiteSpace=wrap;html=1;strokeWidth=2;shadow=1;shadowOpacity=25;shadowOffsetX=10;shadowOffsetY=10;fontFamily=Lucida Console;" parent="1" vertex="1">
          <mxGeometry x="700" y="64.75" width="190" height="80.5" as="geometry" />
        </mxCell>
        <mxCell id="bU_GCNP8-z5AheoSjuVI-65" style="edgeStyle=orthogonalEdgeStyle;rounded=1;orthogonalLoop=1;jettySize=auto;html=1;exitX=0.5;exitY=0;exitDx=0;exitDy=0;entryX=0.5;entryY=0;entryDx=0;entryDy=0;curved=0;strokeWidth=2;" parent="1" source="bU_GCNP8-z5AheoSjuVI-62" target="ZIf5hXbie2FMthYEmdHF-22" edge="1">
          <mxGeometry relative="1" as="geometry">
            <Array as="points">
              <mxPoint x="1140" y="50" />
              <mxPoint x="75" y="50" />
            </Array>
          </mxGeometry>
        </mxCell>
        <mxCell id="bU_GCNP8-z5AheoSjuVI-66" value="Путевой лист" style="edgeLabel;html=1;align=center;verticalAlign=middle;resizable=0;points=[];fontSize=12;fontFamily=Lucida Console;labelBackgroundColor=none;" parent="bU_GCNP8-z5AheoSjuVI-65" vertex="1" connectable="0">
          <mxGeometry x="-0.019" y="1" relative="1" as="geometry">
            <mxPoint y="-21" as="offset" />
          </mxGeometry>
        </mxCell>
        <mxCell id="bU_GCNP8-z5AheoSjuVI-62" value="&lt;font style=&quot;font-size: 14px;&quot;&gt;Центр Технического и Хозяйственного Обслуживания&lt;/font&gt;" style="rounded=0;whiteSpace=wrap;html=1;strokeWidth=2;shadow=1;shadowOffsetX=10;shadowOffsetY=10;fontFamily=Lucida Console;" parent="1" vertex="1">
          <mxGeometry x="1060" y="75" width="160" height="60" as="geometry" />
        </mxCell>
        <mxCell id="bU_GCNP8-z5AheoSjuVI-67" value="" style="endArrow=none;html=1;rounded=0;exitX=0.003;exitY=1.007;exitDx=0;exitDy=0;exitPerimeter=0;entryX=0;entryY=0;entryDx=0;entryDy=0;entryPerimeter=0;strokeWidth=2;" parent="1" source="bU_GCNP8-z5AheoSjuVI-27" target="bU_GCNP8-z5AheoSjuVI-27" edge="1">
          <mxGeometry width="50" height="50" relative="1" as="geometry">
            <mxPoint x="230" y="130" as="sourcePoint" />
            <mxPoint x="260" y="70" as="targetPoint" />
          </mxGeometry>
        </mxCell>
        <mxCell id="bU_GCNP8-z5AheoSjuVI-68" value="" style="endArrow=none;html=1;rounded=0;entryX=-0.001;entryY=-0.003;entryDx=0;entryDy=0;entryPerimeter=0;exitX=-0.003;exitY=0.997;exitDx=0;exitDy=0;exitPerimeter=0;strokeWidth=2;" parent="1" source="bU_GCNP8-z5AheoSjuVI-28" target="bU_GCNP8-z5AheoSjuVI-28" edge="1">
          <mxGeometry width="50" height="50" relative="1" as="geometry">
            <mxPoint x="410" y="140" as="sourcePoint" />
            <mxPoint x="460" y="90" as="targetPoint" />
          </mxGeometry>
        </mxCell>
      </root>
    </mxGraphModel>
  </diagram>
  <diagram id="RiFyJ_GrSPDlRtmP9DLk" name="DFD - Предоставление в аренду инвентаря">
    <mxGraphModel dx="1500" dy="809" grid="1" gridSize="10" guides="1" tooltips="1" connect="1" arrows="1" fold="1" page="1" pageScale="1" pageWidth="1169" pageHeight="827" math="0" shadow="0">
      <root>
        <mxCell id="0" />
        <mxCell id="1" parent="0" />
        <mxCell id="OfwSqqasl3t5qfe1duLv-12" style="edgeStyle=orthogonalEdgeStyle;rounded=1;orthogonalLoop=1;jettySize=auto;html=1;entryX=1;entryY=1;entryDx=0;entryDy=0;exitX=0;exitY=0.809;exitDx=0;exitDy=0;exitPerimeter=0;curved=0;strokeWidth=2;" parent="1" source="RleygtQnq2dHLsqsRosK-1" target="SSufBfQOLHIjBCA3Jyul-1" edge="1">
          <mxGeometry relative="1" as="geometry">
            <mxPoint x="562.4999999999999" y="338.2758620689656" as="targetPoint" />
            <mxPoint x="692.5" y="346" as="sourcePoint" />
            <Array as="points">
              <mxPoint x="682.5" y="346" />
            </Array>
          </mxGeometry>
        </mxCell>
        <mxCell id="OfwSqqasl3t5qfe1duLv-13" value="Карточка сведений&lt;br&gt;(ИНН, банковский счет)" style="edgeLabel;html=1;align=center;verticalAlign=middle;resizable=0;points=[];fontSize=12;fontFamily=Lucida Console;labelBackgroundColor=none;" parent="OfwSqqasl3t5qfe1duLv-12" vertex="1" connectable="0">
          <mxGeometry x="0.2159" y="1" relative="1" as="geometry">
            <mxPoint x="29" y="-14" as="offset" />
          </mxGeometry>
        </mxCell>
        <mxCell id="OfwSqqasl3t5qfe1duLv-18" style="edgeStyle=orthogonalEdgeStyle;rounded=0;orthogonalLoop=1;jettySize=auto;html=1;entryX=1;entryY=0;entryDx=0;entryDy=0;exitX=0;exitY=0.194;exitDx=0;exitDy=0;exitPerimeter=0;strokeWidth=2;" parent="1" source="RleygtQnq2dHLsqsRosK-1" target="SSufBfQOLHIjBCA3Jyul-1" edge="1">
          <mxGeometry relative="1" as="geometry">
            <mxPoint x="692.5" y="260" as="sourcePoint" />
            <Array as="points">
              <mxPoint x="692.5" y="265" />
            </Array>
          </mxGeometry>
        </mxCell>
        <mxCell id="OfwSqqasl3t5qfe1duLv-19" value="Не согласованные&lt;br style=&quot;font-size: 12px;&quot;&gt;(дефектная ведомость, дефектный акт)" style="edgeLabel;html=1;align=center;verticalAlign=middle;resizable=0;points=[];labelBackgroundColor=none;fontSize=12;fontFamily=Lucida Console;" parent="OfwSqqasl3t5qfe1duLv-18" vertex="1" connectable="0">
          <mxGeometry x="-0.0048" y="-2" relative="1" as="geometry">
            <mxPoint x="-1" y="-14" as="offset" />
          </mxGeometry>
        </mxCell>
        <mxCell id="RleygtQnq2dHLsqsRosK-1" value="&lt;font style=&quot;font-size: 18px;&quot;&gt;&lt;b&gt;Начальник хозяйственного отдела&lt;/b&gt;&lt;/font&gt;" style="rounded=0;whiteSpace=wrap;html=1;strokeWidth=4;fontFamily=Lucida Console;" parent="1" vertex="1">
          <mxGeometry x="725" y="240" width="285" height="131" as="geometry" />
        </mxCell>
        <mxCell id="OfwSqqasl3t5qfe1duLv-21" style="edgeStyle=orthogonalEdgeStyle;rounded=1;orthogonalLoop=1;jettySize=auto;html=1;exitX=0.125;exitY=-0.004;exitDx=0;exitDy=0;entryX=0;entryY=0;entryDx=0;entryDy=0;exitPerimeter=0;strokeWidth=2;curved=0;" parent="1" source="SSufBfQOLHIjBCA3Jyul-1" target="OfwSqqasl3t5qfe1duLv-20" edge="1">
          <mxGeometry relative="1" as="geometry">
            <mxPoint x="390" y="90" as="targetPoint" />
            <Array as="points">
              <mxPoint x="191" y="30" />
            </Array>
          </mxGeometry>
        </mxCell>
        <mxCell id="OfwSqqasl3t5qfe1duLv-22" value="&lt;div&gt;Согласованный договор аренды&lt;/div&gt;&lt;div&gt;Составленные (счет, дог. аренды)&lt;br&gt;&lt;/div&gt;" style="edgeLabel;html=1;align=center;verticalAlign=middle;resizable=0;points=[];fontSize=12;fontFamily=Lucida Console;labelBackgroundColor=none;rotation=-90;" parent="OfwSqqasl3t5qfe1duLv-21" vertex="1" connectable="0">
          <mxGeometry x="0.2916" y="1" relative="1" as="geometry">
            <mxPoint x="-106" y="121" as="offset" />
          </mxGeometry>
        </mxCell>
        <mxCell id="OfwSqqasl3t5qfe1duLv-23" style="edgeStyle=orthogonalEdgeStyle;rounded=1;orthogonalLoop=1;jettySize=auto;html=1;exitX=0.279;exitY=0.002;exitDx=0;exitDy=0;entryX=0;entryY=0.25;entryDx=0;entryDy=0;exitPerimeter=0;curved=0;strokeWidth=2;" parent="1" source="SSufBfQOLHIjBCA3Jyul-1" target="OfwSqqasl3t5qfe1duLv-20" edge="1">
          <mxGeometry relative="1" as="geometry">
            <mxPoint x="350" y="120" as="targetPoint" />
          </mxGeometry>
        </mxCell>
        <mxCell id="OfwSqqasl3t5qfe1duLv-24" value="Согласованные (дефектная &lt;br&gt;ведомость, дефектный акт)" style="edgeLabel;html=1;align=center;verticalAlign=middle;resizable=0;points=[];fontSize=12;fontFamily=Lucida Console;labelBackgroundColor=none;rotation=-90;" parent="OfwSqqasl3t5qfe1duLv-23" vertex="1" connectable="0">
          <mxGeometry x="-0.4281" y="2" relative="1" as="geometry">
            <mxPoint x="-18" y="25" as="offset" />
          </mxGeometry>
        </mxCell>
        <mxCell id="OfwSqqasl3t5qfe1duLv-31" style="edgeStyle=orthogonalEdgeStyle;rounded=1;orthogonalLoop=1;jettySize=auto;html=1;exitX=0.914;exitY=0.002;exitDx=0;exitDy=0;exitPerimeter=0;entryX=0.5;entryY=0;entryDx=0;entryDy=0;strokeWidth=2;curved=0;" parent="1" source="SSufBfQOLHIjBCA3Jyul-1" target="RleygtQnq2dHLsqsRosK-1" edge="1">
          <mxGeometry relative="1" as="geometry">
            <mxPoint x="780" y="200" as="targetPoint" />
            <Array as="points">
              <mxPoint x="389" y="200" />
              <mxPoint x="868" y="200" />
            </Array>
          </mxGeometry>
        </mxCell>
        <mxCell id="OfwSqqasl3t5qfe1duLv-32" value="Составленный акт приема-передачи&lt;br&gt;Подписанные(договор аренды, счет)" style="edgeLabel;html=1;align=center;verticalAlign=middle;resizable=0;points=[];fontSize=12;fontFamily=Lucida Console;labelBackgroundColor=none;" parent="OfwSqqasl3t5qfe1duLv-31" vertex="1" connectable="0">
          <mxGeometry x="-0.0422" relative="1" as="geometry">
            <mxPoint x="26" y="-19" as="offset" />
          </mxGeometry>
        </mxCell>
        <mxCell id="SSufBfQOLHIjBCA3Jyul-1" value="&lt;font style=&quot;font-size: 14px;&quot;&gt;Главный бухгалтер&lt;/font&gt;" style="rounded=0;whiteSpace=wrap;html=1;strokeWidth=2;fontFamily=Lucida Console;" parent="1" vertex="1">
          <mxGeometry x="160" y="265.25" width="250" height="80.5" as="geometry" />
        </mxCell>
        <mxCell id="SSufBfQOLHIjBCA3Jyul-4" style="edgeStyle=orthogonalEdgeStyle;rounded=1;orthogonalLoop=1;jettySize=auto;html=1;exitX=1;exitY=0.25;exitDx=0;exitDy=0;entryX=0;entryY=0.25;entryDx=0;entryDy=0;strokeWidth=2;curved=0;" parent="1" source="SSufBfQOLHIjBCA3Jyul-2" target="SSufBfQOLHIjBCA3Jyul-3" edge="1">
          <mxGeometry relative="1" as="geometry" />
        </mxCell>
        <mxCell id="SSufBfQOLHIjBCA3Jyul-5" value="Карточка сведений (ИНН, банковский счет)" style="edgeLabel;html=1;align=center;verticalAlign=middle;resizable=0;points=[];fontSize=12;fontFamily=Lucida Console;labelBackgroundColor=none;" parent="SSufBfQOLHIjBCA3Jyul-4" vertex="1" connectable="0">
          <mxGeometry x="0.0256" y="-1" relative="1" as="geometry">
            <mxPoint y="-21" as="offset" />
          </mxGeometry>
        </mxCell>
        <mxCell id="SSufBfQOLHIjBCA3Jyul-6" style="edgeStyle=orthogonalEdgeStyle;rounded=1;orthogonalLoop=1;jettySize=auto;html=1;exitX=1;exitY=0.75;exitDx=0;exitDy=0;entryX=0;entryY=0.75;entryDx=0;entryDy=0;strokeWidth=2;curved=0;" parent="1" source="SSufBfQOLHIjBCA3Jyul-2" target="SSufBfQOLHIjBCA3Jyul-3" edge="1">
          <mxGeometry relative="1" as="geometry" />
        </mxCell>
        <mxCell id="SSufBfQOLHIjBCA3Jyul-7" value="&lt;font face=&quot;Lucida Console&quot; style=&quot;font-size: 12px;&quot;&gt;&lt;span style=&quot;font-size: 12px;&quot;&gt;Идентификационные документы (ЕГРЮЛ, ЕГРИП,&lt;br style=&quot;font-size: 12px;&quot;&gt;паспортные данные)&lt;/span&gt;&lt;/font&gt;" style="edgeLabel;html=1;align=center;verticalAlign=middle;resizable=0;points=[];labelBackgroundColor=none;fontSize=12;" parent="SSufBfQOLHIjBCA3Jyul-6" vertex="1" connectable="0">
          <mxGeometry x="0.0145" y="1" relative="1" as="geometry">
            <mxPoint y="-19" as="offset" />
          </mxGeometry>
        </mxCell>
        <mxCell id="SSufBfQOLHIjBCA3Jyul-11" style="edgeStyle=orthogonalEdgeStyle;rounded=1;orthogonalLoop=1;jettySize=auto;html=1;exitX=0.5;exitY=1;exitDx=0;exitDy=0;entryX=0.5;entryY=1;entryDx=0;entryDy=0;curved=0;strokeWidth=2;" parent="1" source="SSufBfQOLHIjBCA3Jyul-2" target="SSufBfQOLHIjBCA3Jyul-3" edge="1">
          <mxGeometry relative="1" as="geometry">
            <mxPoint x="562.4999999999999" y="810" as="targetPoint" />
            <Array as="points">
              <mxPoint x="285.5" y="770" />
              <mxPoint x="867.5" y="770" />
            </Array>
          </mxGeometry>
        </mxCell>
        <mxCell id="SSufBfQOLHIjBCA3Jyul-12" value="Подписанные документы (акт приема-передачи, договор аренды)" style="edgeLabel;html=1;align=center;verticalAlign=middle;resizable=0;points=[];fontSize=12;fontFamily=Lucida Console;labelBackgroundColor=none;" parent="SSufBfQOLHIjBCA3Jyul-11" vertex="1" connectable="0">
          <mxGeometry x="-0.1962" y="2" relative="1" as="geometry">
            <mxPoint x="63" y="-8" as="offset" />
          </mxGeometry>
        </mxCell>
        <mxCell id="SSufBfQOLHIjBCA3Jyul-2" value="&lt;font style=&quot;font-size: 14px;&quot;&gt;Заказчик&lt;/font&gt;" style="rounded=0;whiteSpace=wrap;html=1;strokeWidth=2;fontFamily=Lucida Console;shadow=1;shadowOffsetX=10;shadowOffsetY=10;" parent="1" vertex="1">
          <mxGeometry x="190" y="640" width="190" height="80.5" as="geometry" />
        </mxCell>
        <mxCell id="SSufBfQOLHIjBCA3Jyul-9" style="edgeStyle=orthogonalEdgeStyle;rounded=1;orthogonalLoop=1;jettySize=auto;html=1;exitX=0.25;exitY=1;exitDx=0;exitDy=0;entryX=0.75;entryY=1;entryDx=0;entryDy=0;curved=0;strokeWidth=2;" parent="1" source="SSufBfQOLHIjBCA3Jyul-3" target="SSufBfQOLHIjBCA3Jyul-2" edge="1">
          <mxGeometry relative="1" as="geometry">
            <mxPoint x="672.5" y="770" as="targetPoint" />
          </mxGeometry>
        </mxCell>
        <mxCell id="SSufBfQOLHIjBCA3Jyul-10" value="Не подписанные документы (акт приема-передачи,&lt;br style=&quot;font-size: 12px;&quot;&gt;договор аренды)" style="edgeLabel;html=1;align=center;verticalAlign=middle;resizable=0;points=[];fontSize=12;fontFamily=Lucida Console;labelBackgroundColor=none;" parent="SSufBfQOLHIjBCA3Jyul-9" vertex="1" connectable="0">
          <mxGeometry x="0.0756" y="2" relative="1" as="geometry">
            <mxPoint x="11" y="-18" as="offset" />
          </mxGeometry>
        </mxCell>
        <mxCell id="SSufBfQOLHIjBCA3Jyul-13" style="edgeStyle=orthogonalEdgeStyle;rounded=1;orthogonalLoop=1;jettySize=auto;html=1;exitX=0.75;exitY=1;exitDx=0;exitDy=0;entryX=0.25;entryY=1;entryDx=0;entryDy=0;strokeWidth=2;curved=0;" parent="1" source="SSufBfQOLHIjBCA3Jyul-3" target="SSufBfQOLHIjBCA3Jyul-2" edge="1">
          <mxGeometry relative="1" as="geometry">
            <mxPoint x="372.5" y="790" as="targetPoint" />
            <Array as="points">
              <mxPoint x="930.5" y="800" />
              <mxPoint x="237.5" y="800" />
            </Array>
          </mxGeometry>
        </mxCell>
        <mxCell id="SSufBfQOLHIjBCA3Jyul-14" value="Итоговые документы (акт приема-передачи, счет)" style="edgeLabel;html=1;align=center;verticalAlign=middle;resizable=0;points=[];fontSize=12;fontFamily=Lucida Console;labelBackgroundColor=none;" parent="SSufBfQOLHIjBCA3Jyul-13" vertex="1" connectable="0">
          <mxGeometry x="0.2464" y="-2" relative="1" as="geometry">
            <mxPoint x="93" y="-8" as="offset" />
          </mxGeometry>
        </mxCell>
        <mxCell id="OfwSqqasl3t5qfe1duLv-10" style="edgeStyle=orthogonalEdgeStyle;rounded=0;orthogonalLoop=1;jettySize=auto;html=1;exitX=0.665;exitY=-0.002;exitDx=0;exitDy=0;entryX=0.643;entryY=1.002;entryDx=0;entryDy=0;strokeWidth=2;exitPerimeter=0;entryPerimeter=0;" parent="1" source="SSufBfQOLHIjBCA3Jyul-3" target="RleygtQnq2dHLsqsRosK-1" edge="1">
          <mxGeometry relative="1" as="geometry" />
        </mxCell>
        <mxCell id="OfwSqqasl3t5qfe1duLv-11" value="Документы на списание оборудования&lt;br style=&quot;font-size: 12px;&quot;&gt;(дефектная ведомость, дефектный акт)" style="edgeLabel;html=1;align=center;verticalAlign=middle;resizable=0;points=[];fontSize=12;fontFamily=Lucida Console;labelBackgroundColor=none;rotation=90;" parent="OfwSqqasl3t5qfe1duLv-10" vertex="1" connectable="0">
          <mxGeometry x="0.4886" y="1" relative="1" as="geometry">
            <mxPoint x="26" y="65" as="offset" />
          </mxGeometry>
        </mxCell>
        <mxCell id="SSufBfQOLHIjBCA3Jyul-3" value="&lt;font style=&quot;font-size: 14px;&quot;&gt;Ведущий специалист&lt;/font&gt;&lt;div&gt;&lt;font style=&quot;font-size: 14px;&quot;&gt;Главный специалист&lt;/font&gt;&lt;/div&gt;&lt;div&gt;&lt;font style=&quot;font-size: 14px;&quot;&gt;Специалист 2-ой категории&lt;/font&gt;&lt;/div&gt;" style="rounded=0;whiteSpace=wrap;html=1;strokeWidth=2;fontFamily=Lucida Console;" parent="1" vertex="1">
          <mxGeometry x="742.5" y="640" width="250" height="80.5" as="geometry" />
        </mxCell>
        <mxCell id="OfwSqqasl3t5qfe1duLv-3" style="edgeStyle=orthogonalEdgeStyle;rounded=0;orthogonalLoop=1;jettySize=auto;html=1;exitX=0.071;exitY=-0.002;exitDx=0;exitDy=0;exitPerimeter=0;strokeWidth=2;entryX=0.125;entryY=1.002;entryDx=0;entryDy=0;entryPerimeter=0;" parent="1" source="SSufBfQOLHIjBCA3Jyul-3" target="RleygtQnq2dHLsqsRosK-1" edge="1">
          <mxGeometry relative="1" as="geometry">
            <mxPoint x="712.5" y="430" as="targetPoint" />
          </mxGeometry>
        </mxCell>
        <mxCell id="OfwSqqasl3t5qfe1duLv-6" value="Карточка сведений&lt;br&gt;(ИНН, банковский счет)" style="edgeLabel;html=1;align=center;verticalAlign=middle;resizable=0;points=[];labelBackgroundColor=none;rotation=90;fontSize=12;fontFamily=Lucida Console;" parent="OfwSqqasl3t5qfe1duLv-3" vertex="1" connectable="0">
          <mxGeometry x="0.2104" relative="1" as="geometry">
            <mxPoint x="21" y="26" as="offset" />
          </mxGeometry>
        </mxCell>
        <mxCell id="OfwSqqasl3t5qfe1duLv-4" style="edgeStyle=orthogonalEdgeStyle;rounded=0;orthogonalLoop=1;jettySize=auto;html=1;exitX=0.269;exitY=-0.002;exitDx=0;exitDy=0;entryX=0.296;entryY=1.002;entryDx=0;entryDy=0;entryPerimeter=0;exitPerimeter=0;strokeWidth=2;" parent="1" source="SSufBfQOLHIjBCA3Jyul-3" target="RleygtQnq2dHLsqsRosK-1" edge="1">
          <mxGeometry relative="1" as="geometry" />
        </mxCell>
        <mxCell id="OfwSqqasl3t5qfe1duLv-8" value="&lt;span style=&quot;font-size: 12px;&quot;&gt;Идентификационные документы&lt;br style=&quot;font-size: 12px;&quot;&gt;(ЕГРЮЛ, ЕГРИП,&lt;/span&gt;&lt;span style=&quot;font-size: 12px;&quot;&gt;паспортные данные)&lt;/span&gt;" style="edgeLabel;html=1;align=center;verticalAlign=middle;resizable=0;points=[];labelBackgroundColor=none;rotation=90;fontFamily=Lucida Console;fontSize=12;" parent="OfwSqqasl3t5qfe1duLv-4" vertex="1" connectable="0">
          <mxGeometry x="0.221" y="1" relative="1" as="geometry">
            <mxPoint x="26" y="24" as="offset" />
          </mxGeometry>
        </mxCell>
        <mxCell id="OfwSqqasl3t5qfe1duLv-5" style="edgeStyle=orthogonalEdgeStyle;rounded=0;orthogonalLoop=1;jettySize=auto;html=1;exitX=0.466;exitY=-0.002;exitDx=0;exitDy=0;entryX=0.468;entryY=0.998;entryDx=0;entryDy=0;entryPerimeter=0;exitPerimeter=0;strokeWidth=2;" parent="1" source="SSufBfQOLHIjBCA3Jyul-3" target="RleygtQnq2dHLsqsRosK-1" edge="1">
          <mxGeometry relative="1" as="geometry" />
        </mxCell>
        <mxCell id="OfwSqqasl3t5qfe1duLv-9" value="Не согласованный договор аренды" style="edgeLabel;html=1;align=center;verticalAlign=middle;resizable=0;points=[];fontSize=12;fontFamily=Lucida Console;labelBackgroundColor=none;rotation=90;" parent="OfwSqqasl3t5qfe1duLv-5" vertex="1" connectable="0">
          <mxGeometry x="0.1064" y="2" relative="1" as="geometry">
            <mxPoint x="28" y="11" as="offset" />
          </mxGeometry>
        </mxCell>
        <mxCell id="OfwSqqasl3t5qfe1duLv-14" style="edgeStyle=orthogonalEdgeStyle;rounded=1;orthogonalLoop=1;jettySize=auto;html=1;entryX=1.004;entryY=0.668;entryDx=0;entryDy=0;entryPerimeter=0;exitX=-0.005;exitY=0.602;exitDx=0;exitDy=0;exitPerimeter=0;strokeWidth=2;curved=0;" parent="1" source="RleygtQnq2dHLsqsRosK-1" target="SSufBfQOLHIjBCA3Jyul-1" edge="1">
          <mxGeometry relative="1" as="geometry">
            <mxPoint x="692.5" y="310" as="sourcePoint" />
            <Array as="points" />
          </mxGeometry>
        </mxCell>
        <mxCell id="OfwSqqasl3t5qfe1duLv-15" value="Идентификационные документы&lt;br style=&quot;font-size: 12px;&quot;&gt;(ЕГРЮЛ, ЕГРИП, паспортные данные)" style="edgeLabel;html=1;align=center;verticalAlign=middle;resizable=0;points=[];fontSize=12;fontFamily=Lucida Console;labelBackgroundColor=none;" parent="OfwSqqasl3t5qfe1duLv-14" vertex="1" connectable="0">
          <mxGeometry x="0.1958" y="1" relative="1" as="geometry">
            <mxPoint x="26" y="-15" as="offset" />
          </mxGeometry>
        </mxCell>
        <mxCell id="OfwSqqasl3t5qfe1duLv-16" style="edgeStyle=orthogonalEdgeStyle;rounded=0;orthogonalLoop=1;jettySize=auto;html=1;entryX=1.007;entryY=0.302;entryDx=0;entryDy=0;entryPerimeter=0;exitX=-0.001;exitY=0.384;exitDx=0;exitDy=0;exitPerimeter=0;strokeWidth=2;" parent="1" source="RleygtQnq2dHLsqsRosK-1" target="SSufBfQOLHIjBCA3Jyul-1" edge="1">
          <mxGeometry relative="1" as="geometry">
            <mxPoint x="662.5" y="290" as="sourcePoint" />
          </mxGeometry>
        </mxCell>
        <mxCell id="OfwSqqasl3t5qfe1duLv-17" value="Не согласованный договор аренды" style="edgeLabel;html=1;align=center;verticalAlign=middle;resizable=0;points=[];fontSize=12;fontFamily=Lucida Console;labelBackgroundColor=none;" parent="OfwSqqasl3t5qfe1duLv-16" vertex="1" connectable="0">
          <mxGeometry x="0.1836" y="1" relative="1" as="geometry">
            <mxPoint x="30" y="-14" as="offset" />
          </mxGeometry>
        </mxCell>
        <mxCell id="OfwSqqasl3t5qfe1duLv-20" value="&lt;font style=&quot;font-size: 14px;&quot;&gt;Директор&lt;/font&gt;" style="rounded=0;whiteSpace=wrap;html=1;strokeWidth=2;fontFamily=Lucida Console;" parent="1" vertex="1">
          <mxGeometry x="460" y="30" width="250" height="80.5" as="geometry" />
        </mxCell>
        <mxCell id="OfwSqqasl3t5qfe1duLv-25" style="edgeStyle=orthogonalEdgeStyle;rounded=1;orthogonalLoop=1;jettySize=auto;html=1;exitX=0;exitY=0.5;exitDx=0;exitDy=0;entryX=0.443;entryY=-0.004;entryDx=0;entryDy=0;entryPerimeter=0;strokeWidth=2;curved=0;" parent="1" source="OfwSqqasl3t5qfe1duLv-20" target="SSufBfQOLHIjBCA3Jyul-1" edge="1">
          <mxGeometry relative="1" as="geometry" />
        </mxCell>
        <mxCell id="OfwSqqasl3t5qfe1duLv-26" value="Подписанные (договор &lt;br&gt;аренды, счет)" style="edgeLabel;html=1;align=center;verticalAlign=middle;resizable=0;points=[];fontSize=12;fontFamily=Lucida Console;labelBackgroundColor=none;rotation=-90;" parent="OfwSqqasl3t5qfe1duLv-25" vertex="1" connectable="0">
          <mxGeometry x="0.1927" y="-2" relative="1" as="geometry">
            <mxPoint x="-19" y="49" as="offset" />
          </mxGeometry>
        </mxCell>
        <mxCell id="OfwSqqasl3t5qfe1duLv-27" style="edgeStyle=orthogonalEdgeStyle;rounded=1;orthogonalLoop=1;jettySize=auto;html=1;exitX=0;exitY=0.75;exitDx=0;exitDy=0;entryX=0.605;entryY=0.002;entryDx=0;entryDy=0;entryPerimeter=0;strokeWidth=2;curved=0;" parent="1" source="OfwSqqasl3t5qfe1duLv-20" target="SSufBfQOLHIjBCA3Jyul-1" edge="1">
          <mxGeometry relative="1" as="geometry" />
        </mxCell>
        <mxCell id="OfwSqqasl3t5qfe1duLv-28" value="Подписанные (дефектная&lt;br style=&quot;font-size: 12px;&quot;&gt;ведомость, дефектный акт)" style="edgeLabel;html=1;align=center;verticalAlign=middle;resizable=0;points=[];fontSize=12;fontFamily=Lucida Console;labelBackgroundColor=none;rotation=-90;" parent="OfwSqqasl3t5qfe1duLv-27" vertex="1" connectable="0">
          <mxGeometry x="0.1733" y="1" relative="1" as="geometry">
            <mxPoint x="-24" y="33" as="offset" />
          </mxGeometry>
        </mxCell>
        <mxCell id="OfwSqqasl3t5qfe1duLv-29" style="edgeStyle=orthogonalEdgeStyle;rounded=1;orthogonalLoop=1;jettySize=auto;html=1;exitX=0;exitY=1;exitDx=0;exitDy=0;entryX=0.75;entryY=0;entryDx=0;entryDy=0;strokeWidth=2;curved=0;" parent="1" source="OfwSqqasl3t5qfe1duLv-20" target="SSufBfQOLHIjBCA3Jyul-1" edge="1">
          <mxGeometry relative="1" as="geometry">
            <Array as="points">
              <mxPoint x="347" y="111" />
              <mxPoint x="347" y="265" />
            </Array>
          </mxGeometry>
        </mxCell>
        <mxCell id="OfwSqqasl3t5qfe1duLv-30" value="Не составленный&lt;br style=&quot;font-size: 12px;&quot;&gt;акт приема-передачи" style="edgeLabel;html=1;align=center;verticalAlign=middle;resizable=0;points=[];fontSize=12;fontFamily=Lucida Console;labelBackgroundColor=none;rotation=-90;" parent="OfwSqqasl3t5qfe1duLv-29" vertex="1" connectable="0">
          <mxGeometry x="0.2376" y="1" relative="1" as="geometry">
            <mxPoint x="-20" y="10" as="offset" />
          </mxGeometry>
        </mxCell>
        <mxCell id="OfwSqqasl3t5qfe1duLv-33" style="edgeStyle=orthogonalEdgeStyle;rounded=1;orthogonalLoop=1;jettySize=auto;html=1;exitX=0.854;exitY=0.998;exitDx=0;exitDy=0;entryX=0.904;entryY=0.004;entryDx=0;entryDy=0;entryPerimeter=0;exitPerimeter=0;strokeWidth=2;curved=0;" parent="1" source="RleygtQnq2dHLsqsRosK-1" target="SSufBfQOLHIjBCA3Jyul-3" edge="1">
          <mxGeometry relative="1" as="geometry" />
        </mxCell>
        <mxCell id="OfwSqqasl3t5qfe1duLv-34" value="Составленные (счет, &lt;br&gt;акт приема-передачи)&lt;div&gt;Подписанный договор аренды&lt;/div&gt;" style="edgeLabel;html=1;align=center;verticalAlign=middle;resizable=0;points=[];fontSize=12;fontFamily=Lucida Console;labelBackgroundColor=none;rotation=90;" parent="OfwSqqasl3t5qfe1duLv-33" vertex="1" connectable="0">
          <mxGeometry x="-0.3407" y="-1" relative="1" as="geometry">
            <mxPoint x="33" y="50" as="offset" />
          </mxGeometry>
        </mxCell>
        <mxCell id="iRmqM5pccJqomgXzyrCK-1" value="&lt;font style=&quot;font-size: 14px;&quot;&gt;База данных 1C&lt;/font&gt;" style="html=1;rounded=0;shadow=0;comic=0;labelBackgroundColor=none;strokeWidth=2;fontFamily=Lucida Console;fontSize=12;align=center;shape=mxgraph.ios7ui.horLines;fillColor=default;" parent="1" vertex="1">
          <mxGeometry x="188.75" y="520" width="191.25" height="50" as="geometry" />
        </mxCell>
        <mxCell id="cWYSnC5j---JeqC8l7WG-1" value="&lt;font style=&quot;font-size: 14px;&quot;&gt;Хранилище данных&lt;/font&gt;" style="html=1;rounded=0;shadow=0;comic=0;labelBackgroundColor=none;strokeWidth=2;fontFamily=Lucida Console;fontSize=12;align=center;shape=mxgraph.ios7ui.horLines;fillColor=default;" parent="1" vertex="1">
          <mxGeometry x="500" y="520" width="140" height="50" as="geometry" />
        </mxCell>
        <mxCell id="eQXVv8JTMEVIU_iDeht2-1" value="" style="endArrow=none;html=1;rounded=0;exitX=0.003;exitY=0.993;exitDx=0;exitDy=0;exitPerimeter=0;entryX=-0.002;entryY=0;entryDx=0;entryDy=0;entryPerimeter=0;strokeWidth=2;" parent="1" source="iRmqM5pccJqomgXzyrCK-1" target="iRmqM5pccJqomgXzyrCK-1" edge="1">
          <mxGeometry width="50" height="50" relative="1" as="geometry">
            <mxPoint x="400" y="470" as="sourcePoint" />
            <mxPoint x="420" y="450" as="targetPoint" />
          </mxGeometry>
        </mxCell>
        <mxCell id="eQXVv8JTMEVIU_iDeht2-3" value="" style="endArrow=none;html=1;rounded=0;exitX=-0.004;exitY=1;exitDx=0;exitDy=0;exitPerimeter=0;strokeWidth=2;entryX=-0.004;entryY=0;entryDx=0;entryDy=0;entryPerimeter=0;" parent="1" source="cWYSnC5j---JeqC8l7WG-1" target="cWYSnC5j---JeqC8l7WG-1" edge="1">
          <mxGeometry width="50" height="50" relative="1" as="geometry">
            <mxPoint x="460" y="580" as="sourcePoint" />
            <mxPoint x="480" y="540" as="targetPoint" />
          </mxGeometry>
        </mxCell>
        <mxCell id="z9MJ2_zTEYywWp6vzJUT-2" style="edgeStyle=orthogonalEdgeStyle;rounded=1;orthogonalLoop=1;jettySize=auto;html=1;exitX=0.5;exitY=1;exitDx=0;exitDy=0;entryX=0.058;entryY=0;entryDx=0;entryDy=0;entryPerimeter=0;strokeWidth=2;curved=0;" parent="1" source="SSufBfQOLHIjBCA3Jyul-1" target="iRmqM5pccJqomgXzyrCK-1" edge="1">
          <mxGeometry relative="1" as="geometry">
            <mxPoint x="200" y="500" as="targetPoint" />
            <Array as="points">
              <mxPoint x="285" y="380" />
              <mxPoint x="200" y="380" />
            </Array>
          </mxGeometry>
        </mxCell>
        <mxCell id="z9MJ2_zTEYywWp6vzJUT-7" value="Акт приема-передачи" style="edgeLabel;html=1;align=center;verticalAlign=middle;resizable=0;points=[];fontSize=12;fontFamily=Lucida Console;labelBackgroundColor=none;rotation=-90;" parent="z9MJ2_zTEYywWp6vzJUT-2" vertex="1" connectable="0">
          <mxGeometry x="0.6032" y="-2" relative="1" as="geometry">
            <mxPoint x="-13" y="-20" as="offset" />
          </mxGeometry>
        </mxCell>
        <mxCell id="z9MJ2_zTEYywWp6vzJUT-3" style="edgeStyle=orthogonalEdgeStyle;rounded=1;orthogonalLoop=1;jettySize=auto;html=1;exitX=0.5;exitY=1;exitDx=0;exitDy=0;strokeWidth=2;curved=0;entryX=0.268;entryY=-0.004;entryDx=0;entryDy=0;entryPerimeter=0;" parent="1" source="SSufBfQOLHIjBCA3Jyul-1" target="iRmqM5pccJqomgXzyrCK-1" edge="1">
          <mxGeometry relative="1" as="geometry">
            <mxPoint x="250" y="500" as="targetPoint" />
            <Array as="points">
              <mxPoint x="285" y="380" />
              <mxPoint x="240" y="380" />
            </Array>
          </mxGeometry>
        </mxCell>
        <mxCell id="z9MJ2_zTEYywWp6vzJUT-8" value="Договор аренды" style="edgeLabel;html=1;align=center;verticalAlign=middle;resizable=0;points=[];labelBackgroundColor=none;fontSize=12;fontFamily=Lucida Console;rotation=-90;" parent="z9MJ2_zTEYywWp6vzJUT-3" vertex="1" connectable="0">
          <mxGeometry x="0.6083" relative="1" as="geometry">
            <mxPoint x="-20" y="-27" as="offset" />
          </mxGeometry>
        </mxCell>
        <mxCell id="z9MJ2_zTEYywWp6vzJUT-4" style="edgeStyle=orthogonalEdgeStyle;rounded=1;orthogonalLoop=1;jettySize=auto;html=1;exitX=0.5;exitY=1;exitDx=0;exitDy=0;entryX=0.503;entryY=0;entryDx=0;entryDy=0;entryPerimeter=0;strokeWidth=2;curved=0;" parent="1" source="SSufBfQOLHIjBCA3Jyul-1" target="iRmqM5pccJqomgXzyrCK-1" edge="1">
          <mxGeometry relative="1" as="geometry" />
        </mxCell>
        <mxCell id="z9MJ2_zTEYywWp6vzJUT-9" value="Счет" style="edgeLabel;html=1;align=center;verticalAlign=middle;resizable=0;points=[];fontSize=12;fontFamily=Lucida Console;labelBackgroundColor=none;rotation=-90;" parent="z9MJ2_zTEYywWp6vzJUT-4" vertex="1" connectable="0">
          <mxGeometry x="0.1475" relative="1" as="geometry">
            <mxPoint x="-21" y="4" as="offset" />
          </mxGeometry>
        </mxCell>
        <mxCell id="z9MJ2_zTEYywWp6vzJUT-5" style="edgeStyle=orthogonalEdgeStyle;rounded=1;orthogonalLoop=1;jettySize=auto;html=1;exitX=0.5;exitY=1;exitDx=0;exitDy=0;strokeWidth=2;curved=0;entryX=0.743;entryY=-0.004;entryDx=0;entryDy=0;entryPerimeter=0;" parent="1" source="SSufBfQOLHIjBCA3Jyul-1" target="iRmqM5pccJqomgXzyrCK-1" edge="1">
          <mxGeometry relative="1" as="geometry">
            <mxPoint x="360" y="440" as="targetPoint" />
            <Array as="points">
              <mxPoint x="285" y="380" />
              <mxPoint x="330" y="380" />
              <mxPoint x="330" y="470" />
              <mxPoint x="331" y="470" />
            </Array>
          </mxGeometry>
        </mxCell>
        <mxCell id="z9MJ2_zTEYywWp6vzJUT-10" value="Идентификационные &lt;br style=&quot;font-size: 12px;&quot;&gt;документы" style="edgeLabel;html=1;align=center;verticalAlign=middle;resizable=0;points=[];fontSize=12;fontFamily=Lucida Console;labelBackgroundColor=none;rotation=-90;" parent="z9MJ2_zTEYywWp6vzJUT-5" vertex="1" connectable="0">
          <mxGeometry x="0.2672" y="-1" relative="1" as="geometry">
            <mxPoint x="-22" y="10" as="offset" />
          </mxGeometry>
        </mxCell>
        <mxCell id="z9MJ2_zTEYywWp6vzJUT-6" style="edgeStyle=orthogonalEdgeStyle;rounded=1;orthogonalLoop=1;jettySize=auto;html=1;exitX=0.5;exitY=1;exitDx=0;exitDy=0;strokeWidth=2;curved=0;entryX=0.952;entryY=-0.004;entryDx=0;entryDy=0;entryPerimeter=0;" parent="1" source="SSufBfQOLHIjBCA3Jyul-1" target="iRmqM5pccJqomgXzyrCK-1" edge="1">
          <mxGeometry relative="1" as="geometry">
            <mxPoint x="369" y="480" as="targetPoint" />
            <Array as="points">
              <mxPoint x="285" y="380" />
              <mxPoint x="370" y="380" />
              <mxPoint x="370" y="520" />
            </Array>
          </mxGeometry>
        </mxCell>
        <mxCell id="z9MJ2_zTEYywWp6vzJUT-11" value="Реквизиты" style="edgeLabel;html=1;align=center;verticalAlign=middle;resizable=0;points=[];fontSize=12;fontFamily=Lucida Console;labelBackgroundColor=none;rotation=-90;" parent="z9MJ2_zTEYywWp6vzJUT-6" vertex="1" connectable="0">
          <mxGeometry x="0.4273" relative="1" as="geometry">
            <mxPoint x="-21" y="4" as="offset" />
          </mxGeometry>
        </mxCell>
        <mxCell id="z9MJ2_zTEYywWp6vzJUT-12" style="edgeStyle=orthogonalEdgeStyle;rounded=1;orthogonalLoop=1;jettySize=auto;html=1;exitX=0.5;exitY=1;exitDx=0;exitDy=0;entryX=0.059;entryY=0.004;entryDx=0;entryDy=0;entryPerimeter=0;curved=0;strokeWidth=2;" parent="1" source="SSufBfQOLHIjBCA3Jyul-1" target="cWYSnC5j---JeqC8l7WG-1" edge="1">
          <mxGeometry relative="1" as="geometry">
            <Array as="points">
              <mxPoint x="285" y="380" />
              <mxPoint x="508" y="380" />
            </Array>
          </mxGeometry>
        </mxCell>
        <mxCell id="z9MJ2_zTEYywWp6vzJUT-16" value="Акт приема-передачи" style="edgeLabel;html=1;align=center;verticalAlign=middle;resizable=0;points=[];fontSize=12;fontFamily=Lucida Console;labelBackgroundColor=none;rotation=-90;" parent="z9MJ2_zTEYywWp6vzJUT-12" vertex="1" connectable="0">
          <mxGeometry x="0.5978" y="1" relative="1" as="geometry">
            <mxPoint x="-19" y="10" as="offset" />
          </mxGeometry>
        </mxCell>
        <mxCell id="z9MJ2_zTEYywWp6vzJUT-13" style="edgeStyle=orthogonalEdgeStyle;rounded=1;orthogonalLoop=1;jettySize=auto;html=1;exitX=0.5;exitY=1;exitDx=0;exitDy=0;entryX=0.357;entryY=0.004;entryDx=0;entryDy=0;entryPerimeter=0;strokeWidth=2;curved=0;" parent="1" source="SSufBfQOLHIjBCA3Jyul-1" target="cWYSnC5j---JeqC8l7WG-1" edge="1">
          <mxGeometry relative="1" as="geometry">
            <Array as="points">
              <mxPoint x="285" y="380" />
              <mxPoint x="550" y="380" />
            </Array>
          </mxGeometry>
        </mxCell>
        <mxCell id="z9MJ2_zTEYywWp6vzJUT-17" value="Договор аренды" style="edgeLabel;html=1;align=center;verticalAlign=middle;resizable=0;points=[];fontSize=12;fontFamily=Lucida Console;labelBackgroundColor=none;rotation=-90;" parent="z9MJ2_zTEYywWp6vzJUT-13" vertex="1" connectable="0">
          <mxGeometry x="0.7178" relative="1" as="geometry">
            <mxPoint x="-20" y="-8" as="offset" />
          </mxGeometry>
        </mxCell>
        <mxCell id="z9MJ2_zTEYywWp6vzJUT-14" style="edgeStyle=orthogonalEdgeStyle;rounded=1;orthogonalLoop=1;jettySize=auto;html=1;exitX=0.5;exitY=1;exitDx=0;exitDy=0;entryX=0.637;entryY=-0.004;entryDx=0;entryDy=0;entryPerimeter=0;strokeWidth=2;curved=0;" parent="1" source="SSufBfQOLHIjBCA3Jyul-1" target="cWYSnC5j---JeqC8l7WG-1" edge="1">
          <mxGeometry relative="1" as="geometry">
            <mxPoint x="590" y="510" as="targetPoint" />
            <Array as="points">
              <mxPoint x="285" y="380" />
              <mxPoint x="589" y="380" />
            </Array>
          </mxGeometry>
        </mxCell>
        <mxCell id="z9MJ2_zTEYywWp6vzJUT-18" value="Счет" style="edgeLabel;html=1;align=center;verticalAlign=middle;resizable=0;points=[];fontSize=12;fontFamily=Lucida Console;labelBackgroundColor=none;rotation=-90;" parent="z9MJ2_zTEYywWp6vzJUT-14" vertex="1" connectable="0">
          <mxGeometry x="0.6337" y="-2" relative="1" as="geometry">
            <mxPoint x="-17" y="18" as="offset" />
          </mxGeometry>
        </mxCell>
        <mxCell id="z9MJ2_zTEYywWp6vzJUT-15" style="edgeStyle=orthogonalEdgeStyle;rounded=1;orthogonalLoop=1;jettySize=auto;html=1;exitX=0.5;exitY=1;exitDx=0;exitDy=0;entryX=0.92;entryY=0.004;entryDx=0;entryDy=0;entryPerimeter=0;strokeWidth=2;curved=0;" parent="1" source="SSufBfQOLHIjBCA3Jyul-1" target="cWYSnC5j---JeqC8l7WG-1" edge="1">
          <mxGeometry relative="1" as="geometry">
            <Array as="points">
              <mxPoint x="285" y="380" />
              <mxPoint x="629" y="380" />
            </Array>
          </mxGeometry>
        </mxCell>
        <mxCell id="z9MJ2_zTEYywWp6vzJUT-19" value="Дефектная ведомость&lt;div style=&quot;font-size: 12px;&quot;&gt;Дефектный акт&lt;/div&gt;" style="edgeLabel;html=1;align=center;verticalAlign=middle;resizable=0;points=[];fontSize=12;fontFamily=Lucida Console;labelBackgroundColor=none;rotation=-90;" parent="z9MJ2_zTEYywWp6vzJUT-15" vertex="1" connectable="0">
          <mxGeometry x="0.7206" y="3" relative="1" as="geometry">
            <mxPoint x="-24" y="2" as="offset" />
          </mxGeometry>
        </mxCell>
      </root>
    </mxGraphModel>
  </diagram>
</mxfile>
